<?xml version="1.0" encoding="UTF-8"?>
<svg width="264px" height="80px" viewBox="0 0 264 80" version="1.1" xmlns="http://www.w3.org/2000/svg" xmlns:xlink="http://www.w3.org/1999/xlink">
    <!-- Generator: Sketch 51.2 (57519) - http://www.bohemiancoding.com/sketch -->
    <title>Group 47</title>
    <desc>Created with Sketch.</desc>
    <defs></defs>
    <g id="3.1多签10-08" stroke="none" stroke-width="1" fill="none" fill-rule="evenodd">
        <g id="Group-47">
            <rect id="Rectangle-19-Copy-10" fill="#FFFFFF" x="0" y="0" width="264" height="80" rx="40"></rect>
            <path d="M85.12,37.01 L89.46,37.01 L99.085,62 L94.99,62 L92.645,55.56 L81.9,55.56 L79.555,62 L75.495,62 L85.12,37.01 Z M83.055,52.41 L91.49,52.41 L87.36,41.105 L87.22,41.105 L83.055,52.41 Z M110.355,43.415 C114.835,43.415 117.11,45.865 117.11,50.835 L117.11,62 L113.4,62 L113.4,51.15 C113.4,48.07 111.965,46.53 109.165,46.53 C108.115,46.53 107.17,46.88 106.4,47.65 C105.56,48.49 105.035,49.645 104.895,51.115 L104.895,62 L101.185,62 L101.185,43.905 L104.895,43.905 L104.895,46.145 C105.595,45.235 106.4,44.57 107.31,44.115 C108.22,43.625 109.235,43.415 110.355,43.415 Z M134.365,36.52 L138.075,36.52 L138.075,62 L134.61,62 L134.61,59.83 C133.35,61.58 131.46,62.49 129.01,62.49 C126.35,62.49 124.25,61.545 122.745,59.655 C121.345,57.905 120.645,55.63 120.645,52.865 C120.645,50.205 121.31,48 122.71,46.25 C124.18,44.36 126.245,43.415 128.835,43.415 C131.04,43.415 132.895,44.465 134.365,46.6 L134.365,36.52 Z M129.675,46.425 C127.855,46.425 126.49,47.02 125.615,48.28 C124.845,49.33 124.46,50.87 124.46,52.865 C124.46,54.86 124.81,56.4 125.545,57.52 C126.385,58.815 127.75,59.48 129.57,59.48 C131.18,59.48 132.405,58.815 133.315,57.555 C134.085,56.4 134.47,54.93 134.47,53.11 L134.47,52.795 C134.47,50.835 133.98,49.26 133.07,48.07 C132.16,46.95 131.04,46.425 129.675,46.425 Z M150.675,43.415 C151.585,43.415 152.39,43.555 153.02,43.87 L153.02,47.58 C152.11,47.3 151.235,47.195 150.395,47.195 C149.275,47.195 148.26,47.65 147.385,48.56 C146.44,49.54 145.985,50.835 145.985,52.41 L145.985,62 L142.275,62 L142.275,43.905 L145.985,43.905 L145.985,46.635 C146.44,45.655 147.035,44.92 147.735,44.43 C148.575,43.73 149.555,43.415 150.675,43.415 Z M163.625,43.415 C166.355,43.415 168.56,44.325 170.205,46.145 C171.815,47.93 172.655,50.205 172.655,52.97 C172.655,55.7 171.85,57.975 170.24,59.725 C168.56,61.545 166.355,62.49 163.625,62.49 C160.895,62.49 158.69,61.545 157.01,59.725 C155.4,57.975 154.595,55.7 154.595,52.97 C154.595,50.205 155.4,47.93 157.045,46.145 C158.69,44.325 160.895,43.415 163.625,43.415 Z M163.625,46.46 C161.91,46.46 160.58,47.125 159.635,48.49 C158.795,49.645 158.41,51.15 158.41,52.97 C158.41,54.79 158.795,56.26 159.635,57.415 C160.58,58.745 161.91,59.445 163.625,59.445 C165.34,59.445 166.67,58.745 167.65,57.415 C168.49,56.225 168.91,54.755 168.91,52.97 C168.91,51.15 168.49,49.645 167.65,48.49 C166.67,47.125 165.34,46.46 163.625,46.46 Z M178.815,36.66 C179.55,36.66 180.18,36.87 180.67,37.36 C181.16,37.815 181.405,38.41 181.405,39.145 C181.405,39.88 181.125,40.475 180.635,40.965 C180.145,41.42 179.515,41.665 178.815,41.665 C178.08,41.665 177.485,41.42 176.995,40.965 C176.505,40.475 176.26,39.845 176.26,39.145 C176.26,38.41 176.505,37.815 176.995,37.36 C177.485,36.87 178.08,36.66 178.815,36.66 Z M176.96,43.905 L180.67,43.905 L180.67,62 L176.96,62 L176.96,43.905 Z M198.695,36.52 L202.405,36.52 L202.405,62 L198.94,62 L198.94,59.83 C197.68,61.58 195.79,62.49 193.34,62.49 C190.68,62.49 188.58,61.545 187.075,59.655 C185.675,57.905 184.975,55.63 184.975,52.865 C184.975,50.205 185.64,48 187.04,46.25 C188.51,44.36 190.575,43.415 193.165,43.415 C195.37,43.415 197.225,44.465 198.695,46.6 L198.695,36.52 Z M194.005,46.425 C192.185,46.425 190.82,47.02 189.945,48.28 C189.175,49.33 188.79,50.87 188.79,52.865 C188.79,54.86 189.14,56.4 189.875,57.52 C190.715,58.815 192.08,59.48 193.9,59.48 C195.51,59.48 196.735,58.815 197.645,57.555 C198.415,56.4 198.8,54.93 198.8,53.11 L198.8,52.795 C198.8,50.835 198.31,49.26 197.4,48.07 C196.49,46.95 195.37,46.425 194.005,46.425 Z" id="Android-Copy-3" fill="#000000"></path>
            <path d="M76.276,16.576 L80.436,16.576 C82.276,16.576 83.668,17.088 84.628,18.128 C85.524,19.088 85.972,20.48 85.972,22.288 C85.972,24.08 85.508,25.472 84.596,26.464 C83.636,27.488 82.244,28 80.404,28 L76.276,28 L76.276,16.576 Z M78.02,18.064 L78.02,26.512 L80.084,26.512 C81.524,26.512 82.596,26.16 83.268,25.472 C83.924,24.784 84.26,23.728 84.26,22.288 C84.26,20.816 83.924,19.76 83.284,19.088 C82.612,18.4 81.556,18.064 80.116,18.064 L78.02,18.064 Z M92.396,19.504 C93.644,19.504 94.652,19.92 95.404,20.752 C96.14,21.568 96.524,22.608 96.524,23.872 C96.524,25.12 96.156,26.16 95.42,26.96 C94.652,27.792 93.644,28.224 92.396,28.224 C91.148,28.224 90.14,27.792 89.372,26.96 C88.636,26.16 88.268,25.12 88.268,23.872 C88.268,22.608 88.636,21.568 89.388,20.752 C90.14,19.92 91.148,19.504 92.396,19.504 Z M92.396,20.896 C91.612,20.896 91.004,21.2 90.572,21.824 C90.188,22.352 90.012,23.04 90.012,23.872 C90.012,24.704 90.188,25.376 90.572,25.904 C91.004,26.512 91.612,26.832 92.396,26.832 C93.18,26.832 93.788,26.512 94.236,25.904 C94.62,25.36 94.812,24.688 94.812,23.872 C94.812,23.04 94.62,22.352 94.236,21.824 C93.788,21.2 93.18,20.896 92.396,20.896 Z M98.26,19.728 L100.132,19.728 L101.876,25.984 L103.572,19.728 L105.14,19.728 L106.836,25.984 L108.58,19.728 L110.452,19.728 L107.652,28 L106.084,28 L104.356,21.808 L102.628,28 L101.06,28 L98.26,19.728 Z M116.684,19.504 C118.732,19.504 119.772,20.624 119.772,22.896 L119.772,28 L118.076,28 L118.076,23.04 C118.076,21.632 117.42,20.928 116.14,20.928 C115.66,20.928 115.228,21.088 114.876,21.44 C114.492,21.824 114.252,22.352 114.188,23.024 L114.188,28 L112.492,28 L112.492,19.728 L114.188,19.728 L114.188,20.752 C114.508,20.336 114.876,20.032 115.292,19.824 C115.708,19.6 116.172,19.504 116.684,19.504 Z M122.9,16.352 L124.596,16.352 L124.596,28 L122.9,28 L122.9,16.352 Z M131.516,19.504 C132.764,19.504 133.772,19.92 134.524,20.752 C135.26,21.568 135.644,22.608 135.644,23.872 C135.644,25.12 135.276,26.16 134.54,26.96 C133.772,27.792 132.764,28.224 131.516,28.224 C130.268,28.224 129.26,27.792 128.492,26.96 C127.756,26.16 127.388,25.12 127.388,23.872 C127.388,22.608 127.756,21.568 128.508,20.752 C129.26,19.92 130.268,19.504 131.516,19.504 Z M131.516,20.896 C130.732,20.896 130.124,21.2 129.692,21.824 C129.308,22.352 129.132,23.04 129.132,23.872 C129.132,24.704 129.308,25.376 129.692,25.904 C130.124,26.512 130.732,26.832 131.516,26.832 C132.3,26.832 132.908,26.512 133.356,25.904 C133.74,25.36 133.932,24.688 133.932,23.872 C133.932,23.04 133.74,22.352 133.356,21.824 C132.908,21.2 132.3,20.896 131.516,20.896 Z M141.988,19.504 C143.204,19.504 144.1,19.808 144.676,20.416 C145.172,20.944 145.428,21.712 145.428,22.72 L145.428,28 L143.86,28 L143.86,26.832 C143.54,27.248 143.14,27.584 142.66,27.824 C142.116,28.08 141.476,28.224 140.74,28.224 C139.876,28.224 139.204,28 138.724,27.568 C138.196,27.136 137.94,26.576 137.94,25.888 C137.94,24.96 138.308,24.24 139.044,23.744 C139.716,23.264 140.676,23.024 141.892,22.992 L143.748,22.944 L143.748,22.608 C143.748,21.456 143.124,20.88 141.876,20.88 C141.348,20.88 140.916,20.976 140.596,21.168 C140.212,21.392 139.972,21.728 139.876,22.192 L138.196,22.048 C138.372,21.152 138.82,20.48 139.524,20.064 C140.132,19.68 140.964,19.504 141.988,19.504 Z M143.748,24.176 L142.004,24.224 C140.452,24.256 139.684,24.8 139.684,25.824 C139.684,26.144 139.812,26.4 140.084,26.608 C140.34,26.816 140.692,26.928 141.124,26.928 C141.844,26.928 142.452,26.704 142.964,26.272 C143.476,25.84 143.748,25.296 143.748,24.656 L143.748,24.176 Z M154.316,16.352 L156.012,16.352 L156.012,28 L154.428,28 L154.428,27.008 C153.852,27.808 152.988,28.224 151.868,28.224 C150.652,28.224 149.692,27.792 149.004,26.928 C148.364,26.128 148.044,25.088 148.044,23.824 C148.044,22.608 148.348,21.6 148.988,20.8 C149.66,19.936 150.604,19.504 151.788,19.504 C152.796,19.504 153.644,19.984 154.316,20.96 L154.316,16.352 Z M152.172,20.88 C151.34,20.88 150.716,21.152 150.316,21.728 C149.964,22.208 149.788,22.912 149.788,23.824 C149.788,24.736 149.948,25.44 150.284,25.952 C150.668,26.544 151.292,26.848 152.124,26.848 C152.86,26.848 153.42,26.544 153.836,25.968 C154.188,25.44 154.364,24.768 154.364,23.936 L154.364,23.792 C154.364,22.896 154.14,22.176 153.724,21.632 C153.308,21.12 152.796,20.88 152.172,20.88 Z M168.7,16.576 L170.684,16.576 L175.084,28 L173.212,28 L172.14,25.056 L167.228,25.056 L166.156,28 L164.3,28 L168.7,16.576 Z M167.756,23.616 L171.612,23.616 L169.724,18.448 L169.66,18.448 L167.756,23.616 Z M177.204,16.576 L181.94,16.576 C184.66,16.576 186.02,17.728 186.02,20.048 C186.02,22.384 184.644,23.552 181.908,23.552 L178.948,23.552 L178.948,28 L177.204,28 L177.204,16.576 Z M178.948,18.064 L178.948,22.064 L181.796,22.064 C182.66,22.064 183.284,21.904 183.684,21.584 C184.068,21.264 184.276,20.752 184.276,20.048 C184.276,19.344 184.068,18.832 183.668,18.544 C183.268,18.224 182.644,18.064 181.796,18.064 L178.948,18.064 Z M195.9,16.576 L198.108,16.576 L193.052,21.488 L198.844,28 L196.508,28 L191.868,22.624 L190.38,24.048 L190.38,28 L188.636,28 L188.636,16.576 L190.38,16.576 L190.38,22.096 L195.9,16.576 Z" id="Download-APK-Copy-3" fill="#000000"></path>
            <path d="M30.8205128,52.1866368 C30.8205128,53.7434366 32.0453948,55.0026129 33.5707196,55.0026129 L35.558264,55.0026129 C35.4889311,55.2315541 35.4658201,55.4833893 35.4658201,55.7352246 L35.4658201,61.3442827 C35.4658201,62.809506 36.6444801,64 38.077361,64 C39.5102418,64 40.6889018,62.809506 40.6889018,61.3442827 L40.6889018,55.7352246 C40.6889018,55.4833894 40.6426799,55.2315541 40.5964579,55.0026129 L45.449764,55.0026129 C45.3804311,55.2315541 45.3342091,55.4833893 45.3342091,55.7352246 L45.3342091,61.3442827 C45.3342091,62.809506 46.5128691,64 47.94575,64 C49.3786309,64 50.5572909,62.809506 50.5572909,61.3442827 L50.5572909,55.7352246 C50.5572909,55.4833894 50.5110689,55.2315541 50.441736,55.0026129 L52.4292804,55.0026129 C53.9546052,55.0026129 55.1794872,53.7434366 55.1794872,52.1866368 L55.1794872,32.6808511 L30.8205128,32.6808511 L30.8205128,52.1866368 Z M26.4358975,32.6808511 C25.0993874,32.6808511 24,33.8676707 24,35.3283717 L24,46.6716283 C24,48.1323293 25.0993873,49.3191489 26.4358975,49.3191489 C27.7724075,49.3191489 28.8717949,48.1323293 28.8717949,46.6716283 L28.8717949,35.3283717 C28.8717949,33.8676707 27.7724075,32.6808511 26.4358975,32.6808511 Z M59.5641026,32.6808511 C58.2275925,32.6808511 57.1282051,33.8676707 57.1282051,35.3283717 L57.1282051,46.6716283 C57.1282051,48.1323293 58.2275925,49.3191489 59.5641026,49.3191489 C60.9006127,49.3191489 62,48.1323293 62,46.6716283 L62,35.3283717 C61.9784434,33.8676707 60.9006127,32.6808511 59.5641026,32.6808511 Z M49.0029951,21.8353649 L51.0618258,18.6970624 C51.2006233,18.4908965 51.1312246,18.2160087 50.9461611,18.0785648 C50.7379648,17.9411209 50.4835026,17.9869355 50.344705,18.1931014 L49.1880585,19.9798722 L48.702267,20.7358137 L48.2164755,21.4917551 C46.6434364,20.8732575 44.8853337,20.5296478 43.0346994,20.5296478 C41.184065,20.5296478 39.4028295,20.8732576 37.8297903,21.4917551 L36.8350744,19.9798722 L35.6784279,18.1931014 C35.5396304,17.9869355 35.2851681,17.9411209 35.0769717,18.0785648 C34.8687754,18.2160087 34.8225095,18.4908965 34.9613071,18.6970624 L37.0201378,21.8353649 C33.3188692,23.5763211 30.8205128,26.9207895 30.8205128,30.7234043 L55.1794872,30.7234043 C55.1794872,26.9207895 52.6811308,23.5992284 49.0029951,21.8353649 Z M38.1282051,27.787234 C37.3191392,27.787234 36.6666667,27.1291269 36.6666667,26.3191489 C36.6666667,25.509171 37.3191392,24.8510638 38.1282051,24.8510638 C38.9372711,24.8510638 39.5897436,25.509171 39.5897436,26.3191489 C39.5897436,27.1291269 38.937271,27.787234 38.1282051,27.787234 Z M47.8714168,27.787234 C47.0625601,27.787234 46.4102564,27.1291269 46.4102564,26.3191489 C46.4102564,25.509171 47.0625602,24.8510638 47.8714168,24.8510638 C48.6802734,24.8510638 49.3325771,25.509171 49.3325771,26.3191489 C49.3586693,27.1291269 48.7063656,27.787234 47.8714168,27.787234 Z" id="Shape-Copy-4" fill="#000000" fill-rule="nonzero"></path>
        </g>
    </g>
</svg>