<?xml version="1.0" encoding="UTF-8"?>
<svg width="264px" height="80px" viewBox="0 0 264 80" version="1.1" xmlns="http://www.w3.org/2000/svg" xmlns:xlink="http://www.w3.org/1999/xlink">
    <!-- Generator: Sketch 51.2 (57519) - http://www.bohemiancoding.com/sketch -->
    <title>Group 48</title>
    <desc>Created with Sketch.</desc>
    <defs></defs>
    <g id="3.1多签10-08" stroke="none" stroke-width="1" fill="none" fill-rule="evenodd">
        <g id="Group-48">
            <rect id="Rectangle-19-Copy-11" fill="#FFFFFF" x="0" y="0" width="264" height="80" rx="40"></rect>
            <path d="M84.2579998,35.248 C87.3519998,35.248 89.7999998,35.928 91.6019998,37.356 C93.3359998,38.716 94.4239998,40.722 94.8659998,43.442 L91.1259998,43.442 C90.7859998,41.81 90.0379998,40.586 88.8819998,39.77 C87.7259998,38.92 86.1619998,38.512 84.2579998,38.512 C81.9119998,38.512 80.0419998,39.294 78.6479998,40.926 C77.1519998,42.626 76.4379998,44.972 76.4379998,47.964 C76.4379998,50.888 77.0839998,53.132 78.4439998,54.696 C79.8719998,56.396 82.1159998,57.246 85.1419998,57.246 C86.3319998,57.246 87.4539998,57.076 88.5079998,56.804 C89.5279998,56.532 90.4119998,56.124 91.2279998,55.614 L91.2279998,50.344 L84.5299998,50.344 L84.5299998,47.182 L94.9339998,47.182 L94.9339998,57.382 C93.6759998,58.368 92.2139998,59.116 90.5479998,59.66 C88.7799998,60.204 86.8419998,60.476 84.7339998,60.476 C80.8579998,60.476 77.8659998,59.252 75.7239998,56.804 C73.7179998,54.526 72.7319998,51.568 72.7319998,47.964 C72.7319998,44.326 73.7179998,41.334 75.7239998,38.988 C77.8319998,36.472 80.6879998,35.248 84.2579998,35.248 Z M105.34,41.946 C107.992,41.946 110.134,42.83 111.732,44.598 C113.296,46.332 114.112,48.542 114.112,51.228 C114.112,53.88 113.33,56.09 111.766,57.79 C110.134,59.558 107.992,60.476 105.34,60.476 C102.688,60.476 100.546,59.558 98.9139998,57.79 C97.3499998,56.09 96.5679998,53.88 96.5679998,51.228 C96.5679998,48.542 97.3499998,46.332 98.9479998,44.598 C100.546,42.83 102.688,41.946 105.34,41.946 Z M105.34,44.904 C103.674,44.904 102.382,45.55 101.464,46.876 C100.648,47.998 100.274,49.46 100.274,51.228 C100.274,52.996 100.648,54.424 101.464,55.546 C102.382,56.838 103.674,57.518 105.34,57.518 C107.006,57.518 108.298,56.838 109.25,55.546 C110.066,54.39 110.474,52.962 110.474,51.228 C110.474,49.46 110.066,47.998 109.25,46.876 C108.298,45.55 107.006,44.904 105.34,44.904 Z M123.838,41.946 C126.49,41.946 128.632,42.83 130.23,44.598 C131.794,46.332 132.61,48.542 132.61,51.228 C132.61,53.88 131.828,56.09 130.264,57.79 C128.632,59.558 126.49,60.476 123.838,60.476 C121.186,60.476 119.044,59.558 117.412,57.79 C115.848,56.09 115.066,53.88 115.066,51.228 C115.066,48.542 115.848,46.332 117.446,44.598 C119.044,42.83 121.186,41.946 123.838,41.946 Z M123.838,44.904 C122.172,44.904 120.88,45.55 119.962,46.876 C119.146,47.998 118.772,49.46 118.772,51.228 C118.772,52.996 119.146,54.424 119.962,55.546 C120.88,56.838 122.172,57.518 123.838,57.518 C125.504,57.518 126.796,56.838 127.748,55.546 C128.564,54.39 128.972,52.962 128.972,51.228 C128.972,49.46 128.564,47.998 127.748,46.876 C126.796,45.55 125.504,44.904 123.838,44.904 Z M141.554,41.946 C143.866,41.946 145.634,42.864 146.926,44.768 L146.926,42.422 L150.53,42.422 L150.53,58.844 C150.53,64.42 147.776,67.208 142.336,67.208 C139.888,67.208 138.018,66.732 136.726,65.814 C135.434,64.862 134.652,63.434 134.312,61.496 L137.916,61.496 C138.12,62.516 138.528,63.264 139.208,63.706 C139.854,64.114 140.908,64.352 142.336,64.352 C145.396,64.352 146.926,62.686 146.926,59.388 L146.926,56.668 C145.634,58.606 143.866,59.592 141.554,59.592 C139.174,59.592 137.236,58.776 135.774,57.178 C134.278,55.58 133.564,53.472 133.564,50.82 C133.564,48.168 134.278,46.06 135.774,44.428 C137.236,42.762 139.174,41.946 141.554,41.946 Z M142.098,44.87 C140.568,44.87 139.378,45.38 138.562,46.468 C137.678,47.488 137.27,48.95 137.27,50.82 C137.27,52.52 137.61,53.88 138.29,54.866 C139.072,56.022 140.33,56.634 142.098,56.634 C143.628,56.634 144.818,56.124 145.702,55.104 C146.518,54.05 146.96,52.622 146.96,50.82 C146.96,48.984 146.518,47.522 145.702,46.468 C144.818,45.38 143.628,44.87 142.098,44.87 Z M153.218,35.248 L156.822,35.248 L156.822,60 L153.218,60 L153.218,35.248 Z M166.956,41.946 C169.812,41.946 172.022,42.898 173.518,44.87 C174.878,46.638 175.592,49.086 175.626,52.214 L162.298,52.214 C162.434,53.914 162.876,55.24 163.692,56.158 C164.508,57.042 165.63,57.518 167.058,57.518 C168.316,57.518 169.336,57.212 170.118,56.634 C170.73,56.158 171.24,55.376 171.716,54.356 L175.32,54.356 C174.912,55.988 174.13,57.382 172.906,58.47 C171.376,59.796 169.438,60.476 167.092,60.476 C164.508,60.476 162.434,59.66 160.938,58.062 C159.306,56.362 158.49,54.084 158.49,51.194 C158.49,48.576 159.238,46.4 160.802,44.632 C162.298,42.83 164.372,41.946 166.956,41.946 Z M167.058,44.904 C165.698,44.904 164.644,45.278 163.828,46.094 C163.08,46.876 162.57,47.998 162.366,49.494 L171.852,49.494 C171.512,46.434 169.914,44.904 167.058,44.904 Z M186.748,35.724 L196.812,35.724 C202.592,35.724 205.482,38.172 205.482,43.102 C205.482,48.066 202.558,50.548 196.744,50.548 L190.454,50.548 L190.454,60 L186.748,60 L186.748,35.724 Z M190.454,38.886 L190.454,47.386 L196.506,47.386 C198.342,47.386 199.668,47.046 200.518,46.366 C201.334,45.686 201.776,44.598 201.776,43.102 C201.776,41.606 201.334,40.518 200.484,39.906 C199.634,39.226 198.308,38.886 196.506,38.886 L190.454,38.886 Z M207.184,35.248 L210.788,35.248 L210.788,60 L207.184,60 L207.184,35.248 Z M221.398,41.946 C223.982,41.946 225.886,42.592 227.11,43.884 C228.164,45.006 228.708,46.638 228.708,48.78 L228.708,60 L225.376,60 L225.376,57.518 C224.696,58.402 223.846,59.116 222.826,59.626 C221.67,60.17 220.31,60.476 218.746,60.476 C216.91,60.476 215.482,60 214.462,59.082 C213.34,58.164 212.796,56.974 212.796,55.512 C212.796,53.54 213.578,52.01 215.142,50.956 C216.57,49.936 218.61,49.426 221.194,49.358 L225.138,49.256 L225.138,48.542 C225.138,46.094 223.812,44.87 221.16,44.87 C220.038,44.87 219.12,45.074 218.44,45.482 C217.624,45.958 217.114,46.672 216.91,47.658 L213.34,47.352 C213.714,45.448 214.666,44.02 216.162,43.136 C217.454,42.32 219.222,41.946 221.398,41.946 Z M225.138,51.874 L221.432,51.976 C218.134,52.044 216.502,53.2 216.502,55.376 C216.502,56.056 216.774,56.6 217.352,57.042 C217.896,57.484 218.644,57.722 219.562,57.722 C221.092,57.722 222.384,57.246 223.472,56.328 C224.56,55.41 225.138,54.254 225.138,52.894 L225.138,51.874 Z M229.152,42.422 L233.062,42.422 L237.89,55.24 L242.514,42.422 L246.458,42.422 L236.904,66.732 L233.062,66.732 L236.122,59.592 L229.152,42.422 Z" id="Google-Play-Copy" fill="#000000"></path>
            <path d="M78.148,16.576 L82.324,16.576 C84.18,16.576 85.572,17.088 86.532,18.112 C87.444,19.072 87.908,20.464 87.908,22.288 C87.908,24.096 87.444,25.488 86.532,26.464 C85.572,27.488 84.18,28 82.324,28 L78.148,28 L78.148,16.576 Z M80.02,18.176 L80.02,26.4 L81.972,26.4 C83.396,26.4 84.436,26.064 85.092,25.408 C85.732,24.736 86.052,23.696 86.052,22.288 C86.052,20.848 85.732,19.792 85.092,19.152 C84.436,18.496 83.396,18.176 81.972,18.176 L80.02,18.176 Z M94.348,19.504 C95.596,19.504 96.604,19.904 97.372,20.736 C98.124,21.552 98.508,22.592 98.508,23.872 C98.508,25.136 98.124,26.176 97.388,26.976 C96.62,27.808 95.596,28.224 94.348,28.224 C93.084,28.224 92.076,27.808 91.308,26.976 C90.556,26.176 90.188,25.136 90.188,23.872 C90.188,22.592 90.556,21.552 91.324,20.736 C92.076,19.904 93.084,19.504 94.348,19.504 Z M94.348,20.992 C93.58,20.992 93.004,21.28 92.588,21.888 C92.236,22.4 92.06,23.072 92.06,23.872 C92.06,24.672 92.236,25.328 92.588,25.84 C93.004,26.432 93.58,26.736 94.348,26.736 C95.1,26.736 95.692,26.432 96.108,25.84 C96.46,25.312 96.652,24.656 96.652,23.872 C96.652,23.072 96.46,22.4 96.108,21.888 C95.692,21.28 95.1,20.992 94.348,20.992 Z M100.228,19.728 L102.244,19.728 L103.892,25.84 L105.524,19.728 L107.204,19.728 L108.836,25.84 L110.484,19.728 L112.5,19.728 L109.716,28 L108.02,28 L106.372,21.952 L104.708,28 L103.012,28 L100.228,19.728 Z M118.812,19.504 C120.876,19.504 121.916,20.624 121.916,22.896 L121.916,28 L120.092,28 L120.092,23.056 C120.092,21.696 119.468,21.024 118.22,21.024 C117.772,21.024 117.372,21.184 117.036,21.504 C116.652,21.856 116.428,22.368 116.364,23.024 L116.364,28 L114.54,28 L114.54,19.728 L116.364,19.728 L116.364,20.688 C116.684,20.304 117.052,20 117.452,19.808 C117.868,19.6 118.316,19.504 118.812,19.504 Z M124.996,16.352 L126.82,16.352 L126.82,28 L124.996,28 L124.996,16.352 Z M133.74,19.504 C134.988,19.504 135.996,19.904 136.764,20.736 C137.516,21.552 137.9,22.592 137.9,23.872 C137.9,25.136 137.516,26.176 136.78,26.976 C136.012,27.808 134.988,28.224 133.74,28.224 C132.476,28.224 131.468,27.808 130.7,26.976 C129.948,26.176 129.58,25.136 129.58,23.872 C129.58,22.592 129.948,21.552 130.716,20.736 C131.468,19.904 132.476,19.504 133.74,19.504 Z M133.74,20.992 C132.972,20.992 132.396,21.28 131.98,21.888 C131.628,22.4 131.452,23.072 131.452,23.872 C131.452,24.672 131.628,25.328 131.98,25.84 C132.396,26.432 132.972,26.736 133.74,26.736 C134.492,26.736 135.084,26.432 135.5,25.84 C135.852,25.312 136.044,24.656 136.044,23.872 C136.044,23.072 135.852,22.4 135.5,21.888 C135.084,21.28 134.492,20.992 133.74,20.992 Z M144.26,19.504 C145.476,19.504 146.388,19.808 146.964,20.416 C147.476,20.944 147.732,21.712 147.732,22.72 L147.732,28 L146.036,28 L146.036,26.912 C145.716,27.328 145.316,27.632 144.852,27.856 C144.324,28.096 143.7,28.224 142.98,28.224 C142.116,28.224 141.444,28 140.948,27.568 C140.436,27.12 140.18,26.56 140.18,25.872 C140.18,24.944 140.532,24.224 141.268,23.728 C141.94,23.248 142.884,22.992 144.1,22.96 L145.908,22.912 L145.908,22.592 C145.908,21.504 145.316,20.976 144.132,20.976 C143.62,20.976 143.22,21.056 142.916,21.248 C142.564,21.456 142.324,21.776 142.228,22.208 L140.42,22.064 C140.596,21.152 141.044,20.48 141.764,20.064 C142.372,19.68 143.204,19.504 144.26,19.504 Z M145.908,24.224 L144.228,24.272 C142.772,24.304 142.052,24.816 142.052,25.808 C142.052,26.096 142.164,26.336 142.42,26.528 C142.676,26.72 142.996,26.832 143.396,26.832 C144.1,26.832 144.692,26.624 145.172,26.224 C145.652,25.808 145.908,25.28 145.908,24.64 L145.908,24.224 Z M156.54,16.352 L158.364,16.352 L158.364,28 L156.668,28 L156.668,27.12 C156.092,27.856 155.26,28.224 154.172,28.224 C152.94,28.224 151.98,27.792 151.292,26.928 C150.652,26.128 150.332,25.088 150.332,23.824 C150.332,22.608 150.636,21.6 151.276,20.8 C151.948,19.936 152.892,19.504 154.076,19.504 C155.036,19.504 155.852,19.952 156.54,20.864 L156.54,16.352 Z M154.508,20.976 C153.676,20.976 153.084,21.248 152.7,21.792 C152.364,22.256 152.204,22.928 152.204,23.824 C152.204,24.72 152.348,25.408 152.668,25.888 C153.036,26.464 153.628,26.752 154.444,26.752 C155.148,26.752 155.708,26.464 156.092,25.904 C156.428,25.392 156.604,24.72 156.604,23.92 L156.604,23.792 C156.604,22.912 156.38,22.208 155.964,21.696 C155.58,21.216 155.084,20.976 154.508,20.976 Z M171.452,19.504 C172.7,19.504 173.708,19.904 174.476,20.736 C175.228,21.552 175.612,22.592 175.612,23.872 C175.612,25.136 175.228,26.176 174.492,26.976 C173.724,27.808 172.7,28.224 171.452,28.224 C170.188,28.224 169.18,27.808 168.412,26.976 C167.66,26.176 167.292,25.136 167.292,23.872 C167.292,22.592 167.66,21.552 168.428,20.736 C169.18,19.904 170.188,19.504 171.452,19.504 Z M171.452,20.992 C170.684,20.992 170.108,21.28 169.692,21.888 C169.34,22.4 169.164,23.072 169.164,23.872 C169.164,24.672 169.34,25.328 169.692,25.84 C170.108,26.432 170.684,26.736 171.452,26.736 C172.204,26.736 172.796,26.432 173.212,25.84 C173.564,25.312 173.756,24.656 173.756,23.872 C173.756,23.072 173.564,22.4 173.212,21.888 C172.796,21.28 172.204,20.992 171.452,20.992 Z M182.484,19.504 C184.548,19.504 185.588,20.624 185.588,22.896 L185.588,28 L183.764,28 L183.764,23.056 C183.764,21.696 183.14,21.024 181.892,21.024 C181.444,21.024 181.044,21.184 180.708,21.504 C180.324,21.856 180.1,22.368 180.036,23.024 L180.036,28 L178.212,28 L178.212,19.728 L180.036,19.728 L180.036,20.688 C180.356,20.304 180.724,20 181.124,19.808 C181.54,19.6 181.988,19.504 182.484,19.504 Z M197.428,17.056 L197.428,19.728 L199.268,19.728 L199.268,21.232 L197.428,21.232 L197.428,25.904 C197.428,26.096 197.46,26.24 197.556,26.352 C197.652,26.448 197.78,26.496 197.972,26.496 L199.06,26.496 L199.06,28 L197.668,28 C196.948,28 196.42,27.808 196.084,27.424 C195.764,27.072 195.604,26.576 195.604,25.904 L195.604,21.232 L194.116,21.232 L194.116,19.728 L195.604,19.728 L195.604,17.808 L197.428,17.056 Z M201.628,16.352 L203.452,16.352 L203.452,20.832 C203.756,20.368 204.14,20.032 204.588,19.808 C204.988,19.6 205.452,19.504 205.98,19.504 C206.988,19.504 207.74,19.792 208.236,20.384 C208.7,20.944 208.94,21.776 208.94,22.88 L208.94,28 L207.116,28 L207.116,23.2 C207.116,22.496 206.972,21.952 206.7,21.584 C206.38,21.184 205.916,20.992 205.292,20.992 C204.716,20.992 204.268,21.216 203.948,21.664 C203.612,22.112 203.452,22.672 203.452,23.376 L203.452,28 L201.628,28 L201.628,16.352 Z M215.38,19.504 C216.74,19.504 217.78,19.952 218.5,20.88 C219.156,21.712 219.492,22.88 219.492,24.368 L213.3,24.368 C213.364,25.136 213.572,25.728 213.924,26.128 C214.276,26.528 214.788,26.736 215.444,26.736 C216.004,26.736 216.452,26.608 216.804,26.352 C217.076,26.144 217.316,25.808 217.54,25.344 L219.364,25.344 C219.172,26.112 218.788,26.768 218.212,27.28 C217.476,27.904 216.564,28.224 215.46,28.224 C214.228,28.224 213.252,27.84 212.532,27.088 C211.764,26.304 211.38,25.232 211.38,23.856 C211.38,22.624 211.732,21.6 212.468,20.768 C213.172,19.92 214.148,19.504 215.38,19.504 Z M215.428,20.992 C214.82,20.992 214.356,21.152 214.004,21.504 C213.668,21.84 213.444,22.336 213.332,22.992 L217.588,22.992 C217.428,21.648 216.708,20.992 215.428,20.992 Z" id="Download-on-the-Copy-2" fill="#000000"></path>
            <g id="Google-Play-logo-Copy" transform="translate(25.000000, 20.000000)" fill="#000000" fill-rule="nonzero">
                <path d="M3.67973566e-06,36.8624178 L3.67973566e-06,2.71205028 C-0.00180140786,1.55575513 0.660633943,0.501060419 1.70339515,0 L21.6832947,19.787234 L1.70339515,39.5744681 C0.664334825,39.069278 0.00352885185,38.0171775 3.67973566e-06,36.8624178 Z M28.0090629,26.0549903 L6.18597261,38.5503288 L23.405886,21.4949323 L28.0102629,26.0519923 L28.0090629,26.0549903 Z M34.8040287,17.3935783 C35.5507534,17.9644097 35.9920308,18.8477276 35.9998227,19.787234 C36.0100008,20.7153248 35.5814763,21.593827 34.8436285,22.1575048 L30.1990519,24.8095938 L25.1284774,19.787234 L30.1990519,14.7648743 L34.8028287,17.3965764 L34.8040287,17.3935783 Z M6.18597261,1.02413927 L28.0090629,13.5194777 L23.404686,18.0765377 L6.18597261,1.02413927 Z" id="Shape"></path>
            </g>
        </g>
    </g>
</svg>