<?xml version="1.0" encoding="UTF-8"?>
<svg width="264px" height="80px" viewBox="0 0 264 80" version="1.1" xmlns="http://www.w3.org/2000/svg" xmlns:xlink="http://www.w3.org/1999/xlink">
    <!-- Generator: Sketch 51.2 (57519) - http://www.bohemiancoding.com/sketch -->
    <title>Group 49</title>
    <desc>Created with Sketch.</desc>
    <defs></defs>
    <g id="3.1多签10-08" stroke="none" stroke-width="1" fill="none" fill-rule="evenodd">
        <g id="Group-49">
            <rect id="Rectangle-19-Copy-9" fill="#FFFFFF" x="0" y="0" width="264" height="80" rx="40"></rect>
            <path d="M77.1225,35.01 L81.4625,35.01 L91.0875,60 L86.9925,60 L84.6475,53.56 L73.9025,53.56 L71.5575,60 L67.4975,60 L77.1225,35.01 Z M75.0575,50.41 L83.4925,50.41 L79.3625,39.105 L79.2225,39.105 L75.0575,50.41 Z M102.2525,41.415 C104.9125,41.415 106.9775,42.36 108.5175,44.25 C109.9175,46 110.6175,48.24 110.6175,51.04 C110.6175,53.7 109.9175,55.905 108.5525,57.655 C107.0825,59.545 105.0175,60.49 102.4275,60.49 C100.1875,60.49 98.3675,59.44 96.8975,57.34 L96.8975,66.93 L93.1875,66.93 L93.1875,41.905 L96.6525,41.905 L96.6525,44.075 C97.9125,42.29 99.8025,41.415 102.2525,41.415 Z M101.6925,44.425 C100.0825,44.425 98.8225,45.055 97.9475,46.35 C97.1775,47.47 96.7925,48.975 96.7925,50.83 L96.7925,51.145 C96.7925,53.07 97.2475,54.645 98.2275,55.835 C99.0675,56.92 100.1875,57.48 101.5875,57.48 C103.4075,57.48 104.7375,56.885 105.6125,55.695 C106.3825,54.575 106.8025,53.035 106.8025,51.04 C106.8025,49.045 106.4175,47.505 105.7175,46.385 C104.8425,45.055 103.5125,44.425 101.6925,44.425 Z M123.1825,41.415 C125.8425,41.415 127.9075,42.36 129.4475,44.25 C130.8475,46 131.5475,48.24 131.5475,51.04 C131.5475,53.7 130.8475,55.905 129.4825,57.655 C128.0125,59.545 125.9475,60.49 123.3575,60.49 C121.1175,60.49 119.2975,59.44 117.8275,57.34 L117.8275,66.93 L114.1175,66.93 L114.1175,41.905 L117.5825,41.905 L117.5825,44.075 C118.8425,42.29 120.7325,41.415 123.1825,41.415 Z M122.6225,44.425 C121.0125,44.425 119.7525,45.055 118.8775,46.35 C118.1075,47.47 117.7225,48.975 117.7225,50.83 L117.7225,51.145 C117.7225,53.07 118.1775,54.645 119.1575,55.835 C119.9975,56.92 121.1175,57.48 122.5175,57.48 C124.3375,57.48 125.6675,56.885 126.5425,55.695 C127.3125,54.575 127.7325,53.035 127.7325,51.04 C127.7325,49.045 127.3475,47.505 126.6475,46.385 C125.7725,45.055 124.4425,44.425 122.6225,44.425 Z M155.8025,34.52 C158.7075,34.52 160.9825,35.115 162.6275,36.375 C164.3775,37.67 165.3575,39.665 165.6025,42.395 L161.8225,42.395 C161.4725,40.785 160.8425,39.595 159.8625,38.895 C158.8825,38.16 157.4825,37.81 155.5925,37.81 C153.9475,37.81 152.6875,38.055 151.8125,38.545 C150.7275,39.105 150.2025,40.015 150.2025,41.275 C150.2025,42.395 150.7975,43.27 152.0575,43.935 C152.6175,44.25 154.0525,44.775 156.3975,45.475 C159.7575,46.525 161.9625,47.33 162.9425,47.925 C165.0775,49.22 166.1625,51.005 166.1625,53.315 C166.1625,55.555 165.2875,57.305 163.5375,58.6 C161.7875,59.86 159.3375,60.49 156.1875,60.49 C153.1425,60.49 150.7625,59.86 149.0475,58.67 C146.9825,57.2 145.8625,54.89 145.6525,51.74 L149.4325,51.74 C149.7125,53.7 150.4125,55.135 151.5325,55.975 C152.5475,56.745 154.0875,57.13 156.1875,57.13 C158.0775,57.13 159.5825,56.78 160.7025,56.15 C161.8225,55.52 162.3825,54.645 162.3825,53.525 C162.3825,52.125 161.5775,51.04 160.0025,50.235 C159.4425,49.955 157.7975,49.395 155.0325,48.555 C151.9525,47.575 150.0625,46.91 149.2925,46.49 C147.3675,45.335 146.4225,43.655 146.4225,41.485 C146.4225,39.28 147.3325,37.565 149.1875,36.305 C150.9375,35.115 153.1425,34.52 155.8025,34.52 Z M174.8425,36.06 L174.8425,41.905 L178.9725,41.905 L178.9725,44.985 L174.8425,44.985 L174.8425,55.485 C174.8425,55.975 174.9475,56.325 175.1575,56.57 C175.3675,56.78 175.6825,56.92 176.1375,56.92 L178.5175,56.92 L178.5175,60 L175.5425,60 C174.0025,60 172.8475,59.58 172.1475,58.775 C171.4475,58.005 171.1325,56.92 171.1325,55.485 L171.1325,44.985 L167.7725,44.985 L167.7725,41.905 L171.1325,41.905 L171.1325,37.6 L174.8425,36.06 Z M190.2775,41.415 C193.0075,41.415 195.2125,42.325 196.8575,44.145 C198.4675,45.93 199.3075,48.205 199.3075,50.97 C199.3075,53.7 198.5025,55.975 196.8925,57.725 C195.2125,59.545 193.0075,60.49 190.2775,60.49 C187.5475,60.49 185.3425,59.545 183.6625,57.725 C182.0525,55.975 181.2475,53.7 181.2475,50.97 C181.2475,48.205 182.0525,45.93 183.6975,44.145 C185.3425,42.325 187.5475,41.415 190.2775,41.415 Z M190.2775,44.46 C188.5625,44.46 187.2325,45.125 186.2875,46.49 C185.4475,47.645 185.0625,49.15 185.0625,50.97 C185.0625,52.79 185.4475,54.26 186.2875,55.415 C187.2325,56.745 188.5625,57.445 190.2775,57.445 C191.9925,57.445 193.3225,56.745 194.3025,55.415 C195.1425,54.225 195.5625,52.755 195.5625,50.97 C195.5625,49.15 195.1425,47.645 194.3025,46.49 C193.3225,45.125 191.9925,44.46 190.2775,44.46 Z M211.2425,41.415 C212.1525,41.415 212.9575,41.555 213.5875,41.87 L213.5875,45.58 C212.6775,45.3 211.8025,45.195 210.9625,45.195 C209.8425,45.195 208.8275,45.65 207.9525,46.56 C207.0075,47.54 206.5525,48.835 206.5525,50.41 L206.5525,60 L202.8425,60 L202.8425,41.905 L206.5525,41.905 L206.5525,44.635 C207.0075,43.655 207.6025,42.92 208.3025,42.43 C209.1425,41.73 210.1225,41.415 211.2425,41.415 Z M223.5275,41.415 C226.4675,41.415 228.7425,42.395 230.2825,44.425 C231.6825,46.245 232.4175,48.765 232.4525,51.985 L218.7325,51.985 C218.8725,53.735 219.3275,55.1 220.1675,56.045 C221.0075,56.955 222.1625,57.445 223.6325,57.445 C224.9275,57.445 225.9775,57.13 226.7825,56.535 C227.4125,56.045 227.9375,55.24 228.4275,54.19 L232.1375,54.19 C231.7175,55.87 230.9125,57.305 229.6525,58.425 C228.0775,59.79 226.0825,60.49 223.6675,60.49 C221.0075,60.49 218.8725,59.65 217.3325,58.005 C215.6525,56.255 214.8125,53.91 214.8125,50.935 C214.8125,48.24 215.5825,46 217.1925,44.18 C218.7325,42.325 220.8675,41.415 223.5275,41.415 Z M223.6325,44.46 C222.2325,44.46 221.1475,44.845 220.3075,45.685 C219.5375,46.49 219.0125,47.645 218.8025,49.185 L228.5675,49.185 C228.2175,46.035 226.5725,44.46 223.6325,44.46 Z" id="App-Store-Copy" fill="#000000"></path>
            <path d="M78.532,16.576 L82.692,16.576 C84.532,16.576 85.924,17.088 86.884,18.128 C87.78,19.088 88.228,20.48 88.228,22.288 C88.228,24.08 87.764,25.472 86.852,26.464 C85.892,27.488 84.5,28 82.66,28 L78.532,28 L78.532,16.576 Z M80.276,18.064 L80.276,26.512 L82.34,26.512 C83.78,26.512 84.852,26.16 85.524,25.472 C86.18,24.784 86.516,23.728 86.516,22.288 C86.516,20.816 86.18,19.76 85.54,19.088 C84.868,18.4 83.812,18.064 82.372,18.064 L80.276,18.064 Z M94.652,19.504 C95.9,19.504 96.908,19.92 97.66,20.752 C98.396,21.568 98.78,22.608 98.78,23.872 C98.78,25.12 98.412,26.16 97.676,26.96 C96.908,27.792 95.9,28.224 94.652,28.224 C93.404,28.224 92.396,27.792 91.628,26.96 C90.892,26.16 90.524,25.12 90.524,23.872 C90.524,22.608 90.892,21.568 91.644,20.752 C92.396,19.92 93.404,19.504 94.652,19.504 Z M94.652,20.896 C93.868,20.896 93.26,21.2 92.828,21.824 C92.444,22.352 92.268,23.04 92.268,23.872 C92.268,24.704 92.444,25.376 92.828,25.904 C93.26,26.512 93.868,26.832 94.652,26.832 C95.436,26.832 96.044,26.512 96.492,25.904 C96.876,25.36 97.068,24.688 97.068,23.872 C97.068,23.04 96.876,22.352 96.492,21.824 C96.044,21.2 95.436,20.896 94.652,20.896 Z M100.516,19.728 L102.388,19.728 L104.132,25.984 L105.828,19.728 L107.396,19.728 L109.092,25.984 L110.836,19.728 L112.708,19.728 L109.908,28 L108.34,28 L106.612,21.808 L104.884,28 L103.316,28 L100.516,19.728 Z M118.94,19.504 C120.988,19.504 122.028,20.624 122.028,22.896 L122.028,28 L120.332,28 L120.332,23.04 C120.332,21.632 119.676,20.928 118.396,20.928 C117.916,20.928 117.484,21.088 117.132,21.44 C116.748,21.824 116.508,22.352 116.444,23.024 L116.444,28 L114.748,28 L114.748,19.728 L116.444,19.728 L116.444,20.752 C116.764,20.336 117.132,20.032 117.548,19.824 C117.964,19.6 118.428,19.504 118.94,19.504 Z M125.156,16.352 L126.852,16.352 L126.852,28 L125.156,28 L125.156,16.352 Z M133.772,19.504 C135.02,19.504 136.028,19.92 136.78,20.752 C137.516,21.568 137.9,22.608 137.9,23.872 C137.9,25.12 137.532,26.16 136.796,26.96 C136.028,27.792 135.02,28.224 133.772,28.224 C132.524,28.224 131.516,27.792 130.748,26.96 C130.012,26.16 129.644,25.12 129.644,23.872 C129.644,22.608 130.012,21.568 130.764,20.752 C131.516,19.92 132.524,19.504 133.772,19.504 Z M133.772,20.896 C132.988,20.896 132.38,21.2 131.948,21.824 C131.564,22.352 131.388,23.04 131.388,23.872 C131.388,24.704 131.564,25.376 131.948,25.904 C132.38,26.512 132.988,26.832 133.772,26.832 C134.556,26.832 135.164,26.512 135.612,25.904 C135.996,25.36 136.188,24.688 136.188,23.872 C136.188,23.04 135.996,22.352 135.612,21.824 C135.164,21.2 134.556,20.896 133.772,20.896 Z M144.244,19.504 C145.46,19.504 146.356,19.808 146.932,20.416 C147.428,20.944 147.684,21.712 147.684,22.72 L147.684,28 L146.116,28 L146.116,26.832 C145.796,27.248 145.396,27.584 144.916,27.824 C144.372,28.08 143.732,28.224 142.996,28.224 C142.132,28.224 141.46,28 140.98,27.568 C140.452,27.136 140.196,26.576 140.196,25.888 C140.196,24.96 140.564,24.24 141.3,23.744 C141.972,23.264 142.932,23.024 144.148,22.992 L146.004,22.944 L146.004,22.608 C146.004,21.456 145.38,20.88 144.132,20.88 C143.604,20.88 143.172,20.976 142.852,21.168 C142.468,21.392 142.228,21.728 142.132,22.192 L140.452,22.048 C140.628,21.152 141.076,20.48 141.78,20.064 C142.388,19.68 143.22,19.504 144.244,19.504 Z M146.004,24.176 L144.26,24.224 C142.708,24.256 141.94,24.8 141.94,25.824 C141.94,26.144 142.068,26.4 142.34,26.608 C142.596,26.816 142.948,26.928 143.38,26.928 C144.1,26.928 144.708,26.704 145.22,26.272 C145.732,25.84 146.004,25.296 146.004,24.656 L146.004,24.176 Z M156.572,16.352 L158.268,16.352 L158.268,28 L156.684,28 L156.684,27.008 C156.108,27.808 155.244,28.224 154.124,28.224 C152.908,28.224 151.948,27.792 151.26,26.928 C150.62,26.128 150.3,25.088 150.3,23.824 C150.3,22.608 150.604,21.6 151.244,20.8 C151.916,19.936 152.86,19.504 154.044,19.504 C155.052,19.504 155.9,19.984 156.572,20.96 L156.572,16.352 Z M154.428,20.88 C153.596,20.88 152.972,21.152 152.572,21.728 C152.22,22.208 152.044,22.912 152.044,23.824 C152.044,24.736 152.204,25.44 152.54,25.952 C152.924,26.544 153.548,26.848 154.38,26.848 C155.116,26.848 155.676,26.544 156.092,25.968 C156.444,25.44 156.62,24.768 156.62,23.936 L156.62,23.792 C156.62,22.896 156.396,22.176 155.98,21.632 C155.564,21.12 155.052,20.88 154.428,20.88 Z M171.324,19.504 C172.572,19.504 173.58,19.92 174.332,20.752 C175.068,21.568 175.452,22.608 175.452,23.872 C175.452,25.12 175.084,26.16 174.348,26.96 C173.58,27.792 172.572,28.224 171.324,28.224 C170.076,28.224 169.068,27.792 168.3,26.96 C167.564,26.16 167.196,25.12 167.196,23.872 C167.196,22.608 167.564,21.568 168.316,20.752 C169.068,19.92 170.076,19.504 171.324,19.504 Z M171.324,20.896 C170.54,20.896 169.932,21.2 169.5,21.824 C169.116,22.352 168.94,23.04 168.94,23.872 C168.94,24.704 169.116,25.376 169.5,25.904 C169.932,26.512 170.54,26.832 171.324,26.832 C172.108,26.832 172.716,26.512 173.164,25.904 C173.548,25.36 173.74,24.688 173.74,23.872 C173.74,23.04 173.548,22.352 173.164,21.824 C172.716,21.2 172.108,20.896 171.324,20.896 Z M182.26,19.504 C184.308,19.504 185.348,20.624 185.348,22.896 L185.348,28 L183.652,28 L183.652,23.04 C183.652,21.632 182.996,20.928 181.716,20.928 C181.236,20.928 180.804,21.088 180.452,21.44 C180.068,21.824 179.828,22.352 179.764,23.024 L179.764,28 L178.068,28 L178.068,19.728 L179.764,19.728 L179.764,20.752 C180.084,20.336 180.452,20.032 180.868,19.824 C181.284,19.6 181.748,19.504 182.26,19.504 Z M197.124,17.056 L197.124,19.728 L199.012,19.728 L199.012,21.136 L197.124,21.136 L197.124,25.936 C197.124,26.16 197.172,26.32 197.268,26.432 C197.364,26.528 197.508,26.592 197.716,26.592 L198.804,26.592 L198.804,28 L197.444,28 C196.74,28 196.212,27.808 195.892,27.44 C195.572,27.088 195.428,26.592 195.428,25.936 L195.428,21.136 L193.892,21.136 L193.892,19.728 L195.428,19.728 L195.428,17.76 L197.124,17.056 Z M201.372,16.352 L203.068,16.352 L203.068,20.896 C203.372,20.416 203.756,20.048 204.22,19.824 C204.636,19.6 205.1,19.504 205.628,19.504 C206.62,19.504 207.372,19.792 207.884,20.384 C208.364,20.944 208.604,21.776 208.604,22.864 L208.604,28 L206.908,28 L206.908,23.152 C206.908,22.416 206.748,21.872 206.46,21.488 C206.14,21.088 205.644,20.896 205.004,20.896 C204.428,20.896 203.964,21.12 203.612,21.584 C203.244,22.048 203.068,22.64 203.068,23.36 L203.068,28 L201.372,28 L201.372,16.352 Z M215.028,19.504 C216.372,19.504 217.412,19.952 218.116,20.88 C218.756,21.712 219.092,22.864 219.108,24.336 L212.836,24.336 C212.9,25.136 213.108,25.76 213.492,26.192 C213.876,26.608 214.404,26.832 215.076,26.832 C215.668,26.832 216.148,26.688 216.516,26.416 C216.804,26.192 217.044,25.824 217.268,25.344 L218.964,25.344 C218.772,26.112 218.404,26.768 217.828,27.28 C217.108,27.904 216.196,28.224 215.092,28.224 C213.876,28.224 212.9,27.84 212.196,27.088 C211.428,26.288 211.044,25.216 211.044,23.856 C211.044,22.624 211.396,21.6 212.132,20.768 C212.836,19.92 213.812,19.504 215.028,19.504 Z M215.076,20.896 C214.436,20.896 213.94,21.072 213.556,21.456 C213.204,21.824 212.964,22.352 212.868,23.056 L217.332,23.056 C217.172,21.616 216.42,20.896 215.076,20.896 Z" id="Download-on-the-Copy" fill="#000000"></path>
            <path d="M56.2683363,44.6531943 C57.3953488,46.2959583 58.6833631,47.3363755 60.1860465,47.8292047 C59.5420394,49.8552803 58.5223614,51.9361147 57.1806798,54.071708 C55.0339893,57.357236 52.940966,59 50.90161,59 C50.1502683,59 48.9695886,58.726206 47.4669052,58.178618 C46.0715564,57.63103 44.8372093,57.357236 43.763864,57.357236 C42.6905188,57.357236 41.5635063,57.63103 40.2754919,58.178618 C38.9338104,58.726206 37.8604651,59 37.0017889,59 C34.5330948,59 32.0644007,56.8644068 29.6493739,52.5384615 C27.234347,48.3220339 26,44.1603651 26,39.9986962 C26,36.1655802 26.9123435,33.0990874 28.7370304,30.6349413 C30.6153846,28.2255541 32.9230769,27.0208605 35.7137746,27.0208605 C36.3041145,27.0208605 37.0017889,27.0756193 37.7531306,27.2398957 C38.5044723,27.4041721 39.255814,27.6779661 40.0608229,28.1160365 C40.9194562,28.6088657 41.6171735,28.9374185 42.1538462,29.1016949 C42.6904758,29.2659713 43.1198569,29.3754889 43.4418605,29.3754889 C43.8174884,29.3754889 44.3542039,29.2659713 45.1055027,29.1016949 C45.8568444,28.9374185 46.608186,28.6088657 47.3595277,28.1707953 C48.1645367,27.7326811 48.8622111,27.4041283 49.452551,27.1303781 C50.0428909,26.9113429 50.6332308,26.8018253 51.2235707,26.8018253 C53.1555921,26.8018253 54.9266118,27.3494133 56.4292952,28.3898305 C57.2343041,28.9374185 58.0929803,29.7588005 58.9516565,30.9087353 C57.6636422,32.0586701 56.7512987,33.0443286 56.1609589,33.8657106 C55.0876136,35.4537158 54.550941,37.1512386 54.550941,39.0130378 C54.6046082,41.148631 55.1412809,43.0103864 56.2682934,44.6531505 L56.2683363,44.6531943 Z M47.9499106,24.8852673 C46.9838998,25.8161669 46.0715564,26.4185137 45.3202147,26.6923077 C45.0518784,26.8018253 44.6762075,26.8565841 44.2468694,26.9113429 C43.8175313,26.9661017 43.3345259,27.0208605 42.7978533,27.0756193 C42.8515206,24.6114733 43.4418605,22.4758801 44.7298748,20.6688396 C46.0178891,18.8617992 47.9499106,17.6571056 50.8479428,17 C50.90161,17.273794 50.9552773,17.4928292 50.9552773,17.6023468 L50.9552773,18.0404172 C50.9552773,19.0808344 50.7406082,20.1760104 50.2576029,21.4902216 C49.7209732,22.7496741 48.9695886,23.8448501 47.9499535,24.8852673 L47.9499106,24.8852673 Z" id="Shape-Copy-3" fill="#000000" fill-rule="nonzero"></path>
        </g>
    </g>
</svg>