<?xml version="1.0" encoding="utf-8"?>
<!-- Generator: Adobe Illustrator 22.1.0, SVG Export Plug-In . SVG Version: 6.00 Build 0)  -->
<svg version="1.1" id="图层_1" xmlns="http://www.w3.org/2000/svg" xmlns:xlink="http://www.w3.org/1999/xlink" x="0px" y="0px"
	 viewBox="0 0 152 46" style="enable-background:new 0 0 152 46;" xml:space="preserve">
<style type="text/css">
	.st0{fill:#FFFFFF;}
</style>
<title>Group 10@3x</title>
<desc>Created with Sketch.</desc>
<g id="Group-10" transform="translate(556.000000, 805.000000)">
	<path id="Rectangle-2-Copy-2" class="st0" d="M-533-805h105.9c12.7,0,23,10.3,23,23l0,0c0,12.7-10.3,23-23,23H-533
		c-12.7,0-23-10.3-23-23l0,0C-556-794.7-545.7-805-533-805z"/>
	<g id="Group" transform="translate(18.400000, 8.433333)">
		<path id="Fill-5" d="M-538.2-790.9c0-3.2,2.6-4.7,2.7-4.8c-1.5-2.2-3.8-2.5-4.6-2.5c-1.9-0.2-3.8,1.2-4.8,1.2
			c-1,0-2.5-1.1-4.1-1.1c-2.1,0-4.1,1.2-5.1,3.1c-2.2,3.9-0.6,9.5,1.6,12.6c1.1,1.5,2.3,3.2,3.9,3.2c1.6-0.1,2.2-1,4.1-1
			c1.9,0,2.5,1,4.1,1c1.7,0,2.8-1.5,3.8-3.1c1.2-1.7,1.7-3.5,1.7-3.6C-534.9-785.8-538.2-787.1-538.2-790.9"/>
		<path id="Fill-6" d="M-541.4-800.2c0.9-1.1,1.4-2.5,1.3-4c-1.2,0.1-2.8,0.9-3.7,1.9c-0.8,0.9-1.5,2.4-1.3,3.9
			C-543.7-798.3-542.3-799.1-541.4-800.2"/>
		<path id="Fill-7" d="M-523-784.8h4.3l-2.1-6.3h-0.1L-523-784.8z M-518.1-783h-5.4l-1.3,3.9h-2.3l5.2-14.3h2.4l5.2,14.3h-2.3
			L-518.1-783z"/>
		<path id="Fill-8" d="M-505.5-784.3c0-2.1-1.1-3.5-2.8-3.5c-1.6,0-2.7,1.4-2.7,3.5c0,2.1,1.1,3.5,2.7,3.5
			C-506.6-780.8-505.5-782.2-505.5-784.3z M-503.3-784.3c0,3.2-1.7,5.3-4.3,5.3c-1.5,0-2.7-0.7-3.3-1.8h0v5.2h-2.1v-13.9h2.1v1.7h0
			c0.6-1.1,1.9-1.8,3.3-1.8C-505-789.6-503.3-787.6-503.3-784.3z"/>
		<path id="Fill-9" d="M-494-784.3c0-2.1-1.1-3.5-2.8-3.5c-1.6,0-2.7,1.4-2.7,3.5c0,2.1,1.1,3.5,2.7,3.5
			C-495.1-780.8-494-782.2-494-784.3z M-491.8-784.3c0,3.2-1.7,5.3-4.3,5.3c-1.5,0-2.7-0.7-3.3-1.8h0v5.2h-2.1v-13.9h2.1v1.7h0
			c0.6-1.1,1.9-1.8,3.3-1.8C-493.6-789.6-491.8-787.6-491.8-784.3z"/>
		<path id="Fill-10" d="M-484.3-783.1c0.2,1.4,1.5,2.3,3.4,2.3c1.8,0,3.1-0.9,3.1-2.2c0-1.1-0.8-1.8-2.6-2.2l-1.9-0.4
			c-2.6-0.6-3.8-1.9-3.8-3.9c0-2.5,2.1-4.2,5.2-4.2c3,0,5.1,1.7,5.2,4.2h-2.2c-0.1-1.4-1.3-2.3-3-2.3c-1.7,0-2.9,0.9-2.9,2.1
			c0,1,0.8,1.6,2.6,2.1l1.6,0.4c2.9,0.7,4.1,1.9,4.1,4c0,2.7-2.1,4.3-5.5,4.3c-3.2,0-5.3-1.6-5.4-4.2H-484.3"/>
		<path id="Fill-11" d="M-470.9-792v2.5h2v1.7h-2v5.7c0,0.9,0.4,1.3,1.3,1.3c0.2,0,0.6,0,0.7,0v1.7c-0.2,0.1-0.7,0.1-1.2,0.1
			c-2.1,0-2.9-0.8-2.9-2.8v-6h-1.5v-1.7h1.5v-2.5H-470.9"/>
		<path id="Fill-12" d="M-460.1-784.3c0-2.2-1-3.6-2.8-3.6s-2.8,1.3-2.8,3.6c0,2.3,1,3.6,2.8,3.6S-460.1-782.1-460.1-784.3z
			 M-467.8-784.3c0-3.3,1.9-5.3,4.9-5.3c3,0,4.9,2.1,4.9,5.3c0,3.3-1.9,5.3-4.9,5.3C-465.8-779-467.8-781.1-467.8-784.3z"/>
		<path id="Fill-13" d="M-456.1-789.5h2v1.8h0c0.3-1.2,1.3-1.9,2.5-1.9c0.3,0,0.6,0,0.7,0.1v2c-0.2-0.1-0.5-0.1-1-0.1
			c-1.4,0-2.2,0.9-2.2,2.4v6.2h-2.1V-789.5"/>
		<path id="Fill-14" d="M-448.2-785.3h5.2c0-1.6-1.1-2.6-2.6-2.6C-447-787.9-448.1-786.9-448.2-785.3z M-440.9-782.2
			c-0.3,1.9-2.1,3.2-4.5,3.2c-3,0-4.9-2-4.9-5.3c0-3.3,1.9-5.4,4.8-5.4c2.9,0,4.7,2,4.7,5.1v0.7h-7.4v0.1c0,1.8,1.1,2.9,2.8,2.9
			c1.2,0,2.1-0.6,2.4-1.5H-440.9z"/>
		<path id="Fill-15" d="M-524.6-798.3h1.3c1.4,0,2.3-0.9,2.3-2.5c0-1.6-0.8-2.5-2.3-2.5h-1.3V-798.3z M-523.2-804.2
			c2,0,3.2,1.3,3.2,3.4c0,2.2-1.2,3.5-3.2,3.5h-2.5v-6.9H-523.2z"/>
		<path id="Fill-16" d="M-515-799.9c0-1.1-0.5-1.8-1.4-1.8c-0.9,0-1.4,0.7-1.4,1.8c0,1.1,0.5,1.8,1.4,1.8
			C-515.5-798.1-515-798.8-515-799.9z M-518.8-799.9c0-1.7,0.9-2.7,2.4-2.7c1.5,0,2.4,1,2.4,2.7c0,1.7-0.9,2.7-2.4,2.7
			C-517.9-797.2-518.8-798.2-518.8-799.9z"/>
		<polyline id="Fill-17" points="-507.4,-797.3 -508.5,-797.3 -509.6,-801.1 -509.6,-801.1 -510.7,-797.3 -511.8,-797.3 
			-513.2,-802.5 -512.1,-802.5 -511.2,-798.5 -511.1,-798.5 -510.1,-802.5 -509.1,-802.5 -508,-798.5 -507.9,-798.5 -507,-802.5 
			-506,-802.5 -507.4,-797.3 		"/>
		<path id="Fill-18" d="M-504.8-802.5h1v0.8h0.1c0.3-0.6,0.8-0.9,1.5-0.9c1.2,0,1.8,0.7,1.8,1.9v3.4h-1v-3.1c0-0.8-0.4-1.2-1.1-1.2
			c-0.8,0-1.2,0.5-1.2,1.3v3h-1V-802.5"/>
		<polygon id="Fill-19" points="-498.8,-797.3 -497.8,-797.3 -497.8,-804.5 -498.8,-804.5 		"/>
		<path id="Fill-20" d="M-492.5-799.9c0-1.1-0.5-1.8-1.4-1.8c-0.9,0-1.4,0.7-1.4,1.8c0,1.1,0.5,1.8,1.4,1.8
			C-493-798.1-492.5-798.8-492.5-799.9z M-496.3-799.9c0-1.7,0.9-2.7,2.4-2.7c1.5,0,2.4,1,2.4,2.7c0,1.7-0.9,2.7-2.4,2.7
			C-495.4-797.2-496.3-798.2-496.3-799.9z"/>
		<path id="Fill-21" d="M-487-799.2v-0.4l-1.3,0.1c-0.7,0-1,0.3-1,0.7c0,0.5,0.4,0.7,1,0.7C-487.6-798.1-487-798.6-487-799.2z
			 M-490.4-798.8c0-0.9,0.7-1.5,1.9-1.5l1.4-0.1v-0.4c0-0.5-0.4-0.9-1.1-0.9c-0.6,0-1,0.2-1.1,0.6h-1c0.1-0.9,0.9-1.5,2.1-1.5
			c1.3,0,2,0.6,2,1.7v3.5h-1v-0.7h-0.1c-0.3,0.5-0.9,0.8-1.6,0.8C-489.6-797.2-490.4-797.8-490.4-798.8z"/>
		<path id="Fill-22" d="M-483.6-799.9c0,1.1,0.5,1.8,1.4,1.8c0.9,0,1.4-0.7,1.4-1.8c0-1.1-0.5-1.8-1.4-1.8
			C-483.1-801.6-483.6-801-483.6-799.9z M-484.7-799.9c0-1.6,0.8-2.7,2.1-2.7c0.7,0,1.3,0.3,1.6,0.9h0.1v-2.8h1v7.2h-1v-0.8h-0.1
			c-0.3,0.6-0.9,0.9-1.6,0.9C-483.9-797.2-484.7-798.2-484.7-799.9z"/>
		<path id="Fill-23" d="M-471.8-799.9c0-1.1-0.5-1.8-1.4-1.8c-0.9,0-1.4,0.7-1.4,1.8c0,1.1,0.5,1.8,1.4,1.8
			C-472.3-798.1-471.8-798.8-471.8-799.9z M-475.6-799.9c0-1.7,0.9-2.7,2.4-2.7c1.5,0,2.4,1,2.4,2.7c0,1.7-0.9,2.7-2.4,2.7
			C-474.7-797.2-475.6-798.2-475.6-799.9z"/>
		<path id="Fill-24" d="M-469.4-802.5h1v0.8h0.1c0.3-0.6,0.8-0.9,1.5-0.9c1.2,0,1.8,0.7,1.8,1.9v3.4h-1v-3.1c0-0.8-0.4-1.2-1.1-1.2
			c-0.8,0-1.2,0.5-1.2,1.3v3h-1V-802.5"/>
		<path id="Fill-25" d="M-459.2-803.8v1.3h1.1v0.9h-1.1v2.7c0,0.5,0.2,0.8,0.7,0.8c0.2,0,0.2,0,0.4,0v0.9c-0.2,0-0.4,0.1-0.6,0.1
			c-1.1,0-1.6-0.4-1.6-1.4v-2.9h-0.8v-0.9h0.8v-1.3H-459.2"/>
		<path id="Fill-26" d="M-456.7-804.5h1v2.9h0.1c0.3-0.6,0.8-0.9,1.6-0.9c1.1,0,1.8,0.7,1.8,1.9v3.3h-1v-3.1c0-0.8-0.4-1.2-1.1-1.2
			c-0.8,0-1.3,0.5-1.3,1.3v3h-1V-804.5"/>
		<path id="Fill-27" d="M-449.9-800.4h2.6c0-0.8-0.5-1.3-1.3-1.3C-449.3-801.7-449.8-801.2-449.9-800.4z M-446.3-798.7
			c-0.2,0.9-1.1,1.5-2.2,1.5c-1.5,0-2.4-1-2.4-2.7c0-1.7,0.9-2.7,2.4-2.7c1.4,0,2.3,1,2.3,2.6v0.4h-3.7v0.1c0,0.9,0.6,1.5,1.4,1.5
			c0.6,0,1-0.2,1.2-0.6H-446.3z"/>
	</g>
</g>
</svg>
